<mxfile host="Electron" agent="Mozilla/5.0 (Windows NT 10.0; Win64; x64) AppleWebKit/537.36 (KHTML, like Gecko) draw.io/28.0.4 Chrome/138.0.7204.97 Electron/37.2.1 Safari/537.36" version="28.0.4">
  <diagram name="Page-1" id="ecxa3wg9Hfr0wf2rkCHN">
    <mxGraphModel dx="2852" dy="1682" grid="1" gridSize="10" guides="1" tooltips="1" connect="1" arrows="1" fold="1" page="1" pageScale="1" pageWidth="850" pageHeight="1100" math="0" shadow="0">
      <root>
        <mxCell id="0" />
        <mxCell id="1" parent="0" />
        <mxCell id="VrzktwjD4hYp2c8AveAD-11" style="edgeStyle=orthogonalEdgeStyle;rounded=0;orthogonalLoop=1;jettySize=auto;html=1;exitX=0.5;exitY=0.5;exitDx=0;exitDy=0;exitPerimeter=0;entryX=0;entryY=0.5;entryDx=0;entryDy=0;sketch=1;curveFitting=1;jiggle=2;curved=1;endArrow=none;startFill=0;fontSize=16;" parent="1" source="VrzktwjD4hYp2c8AveAD-1" target="VrzktwjD4hYp2c8AveAD-6" edge="1">
          <mxGeometry relative="1" as="geometry" />
        </mxCell>
        <mxCell id="VrzktwjD4hYp2c8AveAD-12" style="edgeStyle=orthogonalEdgeStyle;rounded=0;orthogonalLoop=1;jettySize=auto;html=1;exitX=0.5;exitY=0.5;exitDx=0;exitDy=0;exitPerimeter=0;curved=1;endArrow=none;startFill=0;sketch=1;curveFitting=1;jiggle=2;fontSize=16;" parent="1" source="VrzktwjD4hYp2c8AveAD-1" target="VrzktwjD4hYp2c8AveAD-3" edge="1">
          <mxGeometry relative="1" as="geometry" />
        </mxCell>
        <mxCell id="VrzktwjD4hYp2c8AveAD-13" style="edgeStyle=orthogonalEdgeStyle;rounded=0;orthogonalLoop=1;jettySize=auto;html=1;exitX=0.5;exitY=0.5;exitDx=0;exitDy=0;exitPerimeter=0;entryX=0;entryY=0.5;entryDx=0;entryDy=0;endArrow=none;startFill=0;curved=1;sketch=1;curveFitting=1;jiggle=2;fontSize=16;" parent="1" source="VrzktwjD4hYp2c8AveAD-1" target="VrzktwjD4hYp2c8AveAD-2" edge="1">
          <mxGeometry relative="1" as="geometry">
            <Array as="points">
              <mxPoint x="250" y="1090" />
              <mxPoint x="250" y="610" />
            </Array>
          </mxGeometry>
        </mxCell>
        <mxCell id="VrzktwjD4hYp2c8AveAD-23" style="edgeStyle=orthogonalEdgeStyle;rounded=0;orthogonalLoop=1;jettySize=auto;html=1;exitX=0.5;exitY=0.5;exitDx=0;exitDy=0;exitPerimeter=0;entryX=0;entryY=0.5;entryDx=0;entryDy=0;curved=1;sketch=1;curveFitting=1;jiggle=2;endArrow=none;startFill=0;fontSize=16;" parent="1" source="VrzktwjD4hYp2c8AveAD-1" target="VrzktwjD4hYp2c8AveAD-22" edge="1">
          <mxGeometry relative="1" as="geometry" />
        </mxCell>
        <mxCell id="VrzktwjD4hYp2c8AveAD-1" value="ผู้ดูแลระบบ" style="shape=umlActor;verticalLabelPosition=bottom;verticalAlign=top;html=1;outlineConnect=0;sketch=1;curveFitting=1;jiggle=2;fontSize=20;" parent="1" vertex="1">
          <mxGeometry x="110" y="1060" width="30" height="60" as="geometry" />
        </mxCell>
        <mxCell id="rdVV01v3HmNomVi3YBPN-12" style="edgeStyle=orthogonalEdgeStyle;rounded=0;orthogonalLoop=1;jettySize=auto;html=1;exitX=0;exitY=0;exitDx=0;exitDy=0;entryX=0.5;entryY=1;entryDx=0;entryDy=0;curved=1;sketch=1;curveFitting=1;jiggle=2;fontSize=16;" parent="1" source="VrzktwjD4hYp2c8AveAD-2" target="rdVV01v3HmNomVi3YBPN-8" edge="1">
          <mxGeometry relative="1" as="geometry" />
        </mxCell>
        <mxCell id="rdVV01v3HmNomVi3YBPN-16" value="&amp;lt;&amp;lt;include&amp;gt;&amp;gt;" style="edgeLabel;html=1;align=center;verticalAlign=middle;resizable=0;points=[];fontSize=16;" parent="rdVV01v3HmNomVi3YBPN-12" vertex="1" connectable="0">
          <mxGeometry x="-0.0252" y="1" relative="1" as="geometry">
            <mxPoint as="offset" />
          </mxGeometry>
        </mxCell>
        <mxCell id="rdVV01v3HmNomVi3YBPN-13" style="edgeStyle=orthogonalEdgeStyle;rounded=0;orthogonalLoop=1;jettySize=auto;html=1;exitX=0.5;exitY=0;exitDx=0;exitDy=0;entryX=0.5;entryY=1;entryDx=0;entryDy=0;curved=1;sketch=1;curveFitting=1;jiggle=2;fontSize=16;" parent="1" source="VrzktwjD4hYp2c8AveAD-2" target="rdVV01v3HmNomVi3YBPN-9" edge="1">
          <mxGeometry relative="1" as="geometry" />
        </mxCell>
        <mxCell id="rdVV01v3HmNomVi3YBPN-17" value="&amp;lt;&amp;lt;include&amp;gt;&amp;gt;" style="edgeLabel;html=1;align=center;verticalAlign=middle;resizable=0;points=[];fontSize=16;" parent="rdVV01v3HmNomVi3YBPN-13" vertex="1" connectable="0">
          <mxGeometry x="0.0222" relative="1" as="geometry">
            <mxPoint as="offset" />
          </mxGeometry>
        </mxCell>
        <mxCell id="rdVV01v3HmNomVi3YBPN-14" style="edgeStyle=orthogonalEdgeStyle;rounded=0;orthogonalLoop=1;jettySize=auto;html=1;exitX=1;exitY=0;exitDx=0;exitDy=0;entryX=0;entryY=1;entryDx=0;entryDy=0;curved=1;sketch=1;curveFitting=1;jiggle=2;fontSize=16;" parent="1" source="VrzktwjD4hYp2c8AveAD-2" target="rdVV01v3HmNomVi3YBPN-10" edge="1">
          <mxGeometry relative="1" as="geometry">
            <Array as="points">
              <mxPoint x="640" y="582" />
              <mxPoint x="640" y="500" />
              <mxPoint x="678" y="500" />
            </Array>
          </mxGeometry>
        </mxCell>
        <mxCell id="rdVV01v3HmNomVi3YBPN-18" value="&amp;lt;&amp;lt;include&amp;gt;&amp;gt;" style="edgeLabel;html=1;align=center;verticalAlign=middle;resizable=0;points=[];fontSize=16;" parent="rdVV01v3HmNomVi3YBPN-14" vertex="1" connectable="0">
          <mxGeometry x="0.1308" y="-3" relative="1" as="geometry">
            <mxPoint as="offset" />
          </mxGeometry>
        </mxCell>
        <mxCell id="rdVV01v3HmNomVi3YBPN-15" style="edgeStyle=orthogonalEdgeStyle;rounded=0;orthogonalLoop=1;jettySize=auto;html=1;exitX=1;exitY=0.5;exitDx=0;exitDy=0;entryX=0;entryY=0.5;entryDx=0;entryDy=0;curved=1;sketch=1;curveFitting=1;jiggle=2;fontSize=16;" parent="1" source="VrzktwjD4hYp2c8AveAD-2" target="rdVV01v3HmNomVi3YBPN-11" edge="1">
          <mxGeometry relative="1" as="geometry" />
        </mxCell>
        <mxCell id="rdVV01v3HmNomVi3YBPN-19" value="&amp;lt;&amp;lt;include&amp;gt;&amp;gt;" style="edgeLabel;html=1;align=center;verticalAlign=middle;resizable=0;points=[];fontSize=16;" parent="rdVV01v3HmNomVi3YBPN-15" vertex="1" connectable="0">
          <mxGeometry x="-0.1026" y="1" relative="1" as="geometry">
            <mxPoint as="offset" />
          </mxGeometry>
        </mxCell>
        <mxCell id="rdVV01v3HmNomVi3YBPN-23" style="edgeStyle=orthogonalEdgeStyle;rounded=0;orthogonalLoop=1;jettySize=auto;html=1;exitX=0;exitY=0.5;exitDx=0;exitDy=0;entryX=0.5;entryY=1;entryDx=0;entryDy=0;curved=1;sketch=1;curveFitting=1;jiggle=2;fontSize=16;" parent="1" source="VrzktwjD4hYp2c8AveAD-2" target="rdVV01v3HmNomVi3YBPN-22" edge="1">
          <mxGeometry relative="1" as="geometry">
            <Array as="points">
              <mxPoint x="480" y="590" />
              <mxPoint x="310" y="590" />
            </Array>
          </mxGeometry>
        </mxCell>
        <mxCell id="rdVV01v3HmNomVi3YBPN-24" value="&amp;lt;&amp;lt;include&amp;gt;&amp;gt;" style="edgeLabel;html=1;align=center;verticalAlign=middle;resizable=0;points=[];fontSize=16;" parent="rdVV01v3HmNomVi3YBPN-23" vertex="1" connectable="0">
          <mxGeometry x="-0.0029" relative="1" as="geometry">
            <mxPoint as="offset" />
          </mxGeometry>
        </mxCell>
        <mxCell id="VrzktwjD4hYp2c8AveAD-2" value="จัดการบุคลากร" style="ellipse;whiteSpace=wrap;html=1;sketch=1;curveFitting=1;jiggle=2;fillColor=#b0e3e6;strokeColor=#0e8088;fontSize=16;" parent="1" vertex="1">
          <mxGeometry x="480" y="570" width="120" height="80" as="geometry" />
        </mxCell>
        <mxCell id="VrzktwjD4hYp2c8AveAD-17" style="edgeStyle=orthogonalEdgeStyle;rounded=0;orthogonalLoop=1;jettySize=auto;html=1;exitX=1;exitY=1;exitDx=0;exitDy=0;entryX=0;entryY=0.5;entryDx=0;entryDy=0;curved=1;sketch=1;curveFitting=1;jiggle=2;endArrow=classic;startFill=0;endFill=1;fontSize=16;" parent="1" source="VrzktwjD4hYp2c8AveAD-3" target="VrzktwjD4hYp2c8AveAD-5" edge="1">
          <mxGeometry relative="1" as="geometry" />
        </mxCell>
        <mxCell id="VrzktwjD4hYp2c8AveAD-24" value="&amp;lt;&amp;lt;include&amp;gt;&amp;gt;" style="edgeLabel;html=1;align=center;verticalAlign=middle;resizable=0;points=[];fontSize=16;" parent="VrzktwjD4hYp2c8AveAD-17" vertex="1" connectable="0">
          <mxGeometry x="0.0594" y="-1" relative="1" as="geometry">
            <mxPoint as="offset" />
          </mxGeometry>
        </mxCell>
        <mxCell id="VrzktwjD4hYp2c8AveAD-18" style="edgeStyle=orthogonalEdgeStyle;rounded=0;orthogonalLoop=1;jettySize=auto;html=1;exitX=1;exitY=0;exitDx=0;exitDy=0;curved=1;endArrow=classic;startFill=0;sketch=1;curveFitting=1;jiggle=2;endFill=1;fontSize=16;" parent="1" source="VrzktwjD4hYp2c8AveAD-3" target="VrzktwjD4hYp2c8AveAD-4" edge="1">
          <mxGeometry relative="1" as="geometry" />
        </mxCell>
        <mxCell id="VrzktwjD4hYp2c8AveAD-25" value="&amp;lt;&amp;lt;include&amp;gt;&amp;gt;" style="edgeLabel;html=1;align=center;verticalAlign=middle;resizable=0;points=[];fontSize=16;" parent="VrzktwjD4hYp2c8AveAD-18" vertex="1" connectable="0">
          <mxGeometry x="0.0941" y="2" relative="1" as="geometry">
            <mxPoint as="offset" />
          </mxGeometry>
        </mxCell>
        <mxCell id="VrzktwjD4hYp2c8AveAD-3" value="จัดการหลักสูตร" style="ellipse;whiteSpace=wrap;html=1;sketch=1;curveFitting=1;jiggle=2;fillColor=#e1d5e7;strokeColor=#9673a6;fontSize=16;" parent="1" vertex="1">
          <mxGeometry x="340" y="980" width="120" height="80" as="geometry" />
        </mxCell>
        <mxCell id="VrzktwjD4hYp2c8AveAD-41" style="edgeStyle=orthogonalEdgeStyle;rounded=0;orthogonalLoop=1;jettySize=auto;html=1;exitX=0.5;exitY=0;exitDx=0;exitDy=0;entryX=0;entryY=1;entryDx=0;entryDy=0;curved=1;sketch=1;curveFitting=1;jiggle=2;fontSize=16;" parent="1" source="VrzktwjD4hYp2c8AveAD-4" target="VrzktwjD4hYp2c8AveAD-35" edge="1">
          <mxGeometry relative="1" as="geometry" />
        </mxCell>
        <mxCell id="VrzktwjD4hYp2c8AveAD-71" value="&amp;lt;&amp;lt;include&amp;gt;&amp;gt;" style="edgeLabel;html=1;align=center;verticalAlign=middle;resizable=0;points=[];fontSize=16;" parent="VrzktwjD4hYp2c8AveAD-41" vertex="1" connectable="0">
          <mxGeometry x="0.0842" y="3" relative="1" as="geometry">
            <mxPoint as="offset" />
          </mxGeometry>
        </mxCell>
        <mxCell id="VrzktwjD4hYp2c8AveAD-42" style="edgeStyle=orthogonalEdgeStyle;rounded=0;orthogonalLoop=1;jettySize=auto;html=1;exitX=1;exitY=0;exitDx=0;exitDy=0;entryX=0;entryY=0.5;entryDx=0;entryDy=0;curved=1;sketch=1;curveFitting=1;jiggle=2;fontSize=16;" parent="1" source="VrzktwjD4hYp2c8AveAD-4" target="VrzktwjD4hYp2c8AveAD-36" edge="1">
          <mxGeometry relative="1" as="geometry" />
        </mxCell>
        <mxCell id="VrzktwjD4hYp2c8AveAD-70" value="&amp;lt;&amp;lt;include&amp;gt;&amp;gt;" style="edgeLabel;html=1;align=center;verticalAlign=middle;resizable=0;points=[];fontSize=16;" parent="VrzktwjD4hYp2c8AveAD-42" vertex="1" connectable="0">
          <mxGeometry x="0.1293" y="-1" relative="1" as="geometry">
            <mxPoint as="offset" />
          </mxGeometry>
        </mxCell>
        <mxCell id="VrzktwjD4hYp2c8AveAD-43" style="edgeStyle=orthogonalEdgeStyle;rounded=0;orthogonalLoop=1;jettySize=auto;html=1;exitX=0.015;exitY=0.335;exitDx=0;exitDy=0;entryX=0.5;entryY=1;entryDx=0;entryDy=0;curved=1;sketch=1;curveFitting=1;jiggle=2;exitPerimeter=0;fontSize=16;" parent="1" source="VrzktwjD4hYp2c8AveAD-4" target="VrzktwjD4hYp2c8AveAD-34" edge="1">
          <mxGeometry relative="1" as="geometry" />
        </mxCell>
        <mxCell id="VrzktwjD4hYp2c8AveAD-73" value="&amp;lt;&amp;lt;include&amp;gt;&amp;gt;" style="edgeLabel;html=1;align=center;verticalAlign=middle;resizable=0;points=[];fontSize=16;" parent="VrzktwjD4hYp2c8AveAD-43" vertex="1" connectable="0">
          <mxGeometry x="0.3796" y="-7" relative="1" as="geometry">
            <mxPoint x="18" y="-9" as="offset" />
          </mxGeometry>
        </mxCell>
        <mxCell id="VrzktwjD4hYp2c8AveAD-44" style="edgeStyle=orthogonalEdgeStyle;rounded=0;orthogonalLoop=1;jettySize=auto;html=1;exitX=0;exitY=0;exitDx=0;exitDy=0;entryX=0.5;entryY=1;entryDx=0;entryDy=0;curved=1;sketch=1;curveFitting=1;jiggle=2;fontSize=16;" parent="1" source="VrzktwjD4hYp2c8AveAD-4" target="VrzktwjD4hYp2c8AveAD-37" edge="1">
          <mxGeometry relative="1" as="geometry" />
        </mxCell>
        <mxCell id="VrzktwjD4hYp2c8AveAD-72" value="&amp;lt;&amp;lt;include&amp;gt;&amp;gt;" style="edgeLabel;html=1;align=center;verticalAlign=middle;resizable=0;points=[];fontSize=16;" parent="VrzktwjD4hYp2c8AveAD-44" vertex="1" connectable="0">
          <mxGeometry x="0.0992" y="3" relative="1" as="geometry">
            <mxPoint as="offset" />
          </mxGeometry>
        </mxCell>
        <mxCell id="VrzktwjD4hYp2c8AveAD-46" style="edgeStyle=orthogonalEdgeStyle;rounded=0;orthogonalLoop=1;jettySize=auto;html=1;exitX=1;exitY=0.5;exitDx=0;exitDy=0;entryX=0;entryY=0.5;entryDx=0;entryDy=0;sketch=1;curveFitting=1;jiggle=2;curved=1;fontSize=16;" parent="1" source="VrzktwjD4hYp2c8AveAD-4" target="VrzktwjD4hYp2c8AveAD-45" edge="1">
          <mxGeometry relative="1" as="geometry" />
        </mxCell>
        <mxCell id="VrzktwjD4hYp2c8AveAD-69" value="&amp;lt;&amp;lt;include&amp;gt;&amp;gt;" style="edgeLabel;html=1;align=center;verticalAlign=middle;resizable=0;points=[];fontSize=16;" parent="VrzktwjD4hYp2c8AveAD-46" vertex="1" connectable="0">
          <mxGeometry x="-0.1188" y="-5" relative="1" as="geometry">
            <mxPoint as="offset" />
          </mxGeometry>
        </mxCell>
        <mxCell id="VrzktwjD4hYp2c8AveAD-4" value="จัดการสาขาวิชา" style="ellipse;whiteSpace=wrap;html=1;sketch=1;curveFitting=1;jiggle=2;fillColor=#dae8fc;strokeColor=#6c8ebf;fontSize=16;" parent="1" vertex="1">
          <mxGeometry x="550" y="915" width="120" height="80" as="geometry" />
        </mxCell>
        <mxCell id="VrzktwjD4hYp2c8AveAD-56" style="edgeStyle=orthogonalEdgeStyle;rounded=0;orthogonalLoop=1;jettySize=auto;html=1;exitX=0;exitY=1;exitDx=0;exitDy=0;entryX=0.5;entryY=0;entryDx=0;entryDy=0;curved=1;sketch=1;curveFitting=1;jiggle=2;fontSize=16;" parent="1" source="VrzktwjD4hYp2c8AveAD-5" target="VrzktwjD4hYp2c8AveAD-52" edge="1">
          <mxGeometry relative="1" as="geometry">
            <Array as="points">
              <mxPoint x="568" y="1140" />
              <mxPoint x="390" y="1140" />
            </Array>
          </mxGeometry>
        </mxCell>
        <mxCell id="VrzktwjD4hYp2c8AveAD-64" value="&amp;lt;&amp;lt;include&amp;gt;&amp;gt;" style="edgeLabel;html=1;align=center;verticalAlign=middle;resizable=0;points=[];fontSize=16;" parent="VrzktwjD4hYp2c8AveAD-56" vertex="1" connectable="0">
          <mxGeometry x="-0.1691" y="1" relative="1" as="geometry">
            <mxPoint as="offset" />
          </mxGeometry>
        </mxCell>
        <mxCell id="VrzktwjD4hYp2c8AveAD-57" style="edgeStyle=orthogonalEdgeStyle;rounded=0;orthogonalLoop=1;jettySize=auto;html=1;exitX=0.5;exitY=1;exitDx=0;exitDy=0;entryX=0.5;entryY=0;entryDx=0;entryDy=0;sketch=1;curveFitting=1;jiggle=2;curved=1;fontSize=16;" parent="1" source="VrzktwjD4hYp2c8AveAD-5" target="VrzktwjD4hYp2c8AveAD-53" edge="1">
          <mxGeometry relative="1" as="geometry" />
        </mxCell>
        <mxCell id="VrzktwjD4hYp2c8AveAD-65" value="&amp;lt;&amp;lt;include&amp;gt;&amp;gt;" style="edgeLabel;html=1;align=center;verticalAlign=middle;resizable=0;points=[];fontSize=16;" parent="VrzktwjD4hYp2c8AveAD-57" vertex="1" connectable="0">
          <mxGeometry x="0.1469" y="1" relative="1" as="geometry">
            <mxPoint as="offset" />
          </mxGeometry>
        </mxCell>
        <mxCell id="VrzktwjD4hYp2c8AveAD-59" style="edgeStyle=orthogonalEdgeStyle;rounded=0;orthogonalLoop=1;jettySize=auto;html=1;exitX=0.5;exitY=1;exitDx=0;exitDy=0;entryX=0.5;entryY=0;entryDx=0;entryDy=0;sketch=1;curveFitting=1;jiggle=2;curved=1;fontSize=16;" parent="1" source="VrzktwjD4hYp2c8AveAD-5" target="VrzktwjD4hYp2c8AveAD-54" edge="1">
          <mxGeometry relative="1" as="geometry" />
        </mxCell>
        <mxCell id="VrzktwjD4hYp2c8AveAD-66" value="&amp;lt;&amp;lt;include&amp;gt;&amp;gt;" style="edgeLabel;html=1;align=center;verticalAlign=middle;resizable=0;points=[];fontSize=16;" parent="VrzktwjD4hYp2c8AveAD-59" vertex="1" connectable="0">
          <mxGeometry x="0.0376" relative="1" as="geometry">
            <mxPoint as="offset" />
          </mxGeometry>
        </mxCell>
        <mxCell id="VrzktwjD4hYp2c8AveAD-63" style="edgeStyle=orthogonalEdgeStyle;rounded=0;orthogonalLoop=1;jettySize=auto;html=1;exitX=1;exitY=0.5;exitDx=0;exitDy=0;entryX=0;entryY=0.5;entryDx=0;entryDy=0;sketch=1;curveFitting=1;jiggle=2;curved=1;fontSize=16;" parent="1" source="VrzktwjD4hYp2c8AveAD-5" target="VrzktwjD4hYp2c8AveAD-51" edge="1">
          <mxGeometry relative="1" as="geometry" />
        </mxCell>
        <mxCell id="VrzktwjD4hYp2c8AveAD-68" value="&amp;lt;&amp;lt;include&amp;gt;&amp;gt;" style="edgeLabel;html=1;align=center;verticalAlign=middle;resizable=0;points=[];fontSize=16;" parent="VrzktwjD4hYp2c8AveAD-63" vertex="1" connectable="0">
          <mxGeometry x="-0.0481" y="1" relative="1" as="geometry">
            <mxPoint as="offset" />
          </mxGeometry>
        </mxCell>
        <mxCell id="VrzktwjD4hYp2c8AveAD-95" style="edgeStyle=orthogonalEdgeStyle;rounded=0;orthogonalLoop=1;jettySize=auto;html=1;exitX=1;exitY=1;exitDx=0;exitDy=0;entryX=0;entryY=0;entryDx=0;entryDy=0;curved=1;sketch=1;curveFitting=1;jiggle=2;fontSize=16;" parent="1" source="VrzktwjD4hYp2c8AveAD-5" target="VrzktwjD4hYp2c8AveAD-55" edge="1">
          <mxGeometry relative="1" as="geometry">
            <Array as="points">
              <mxPoint x="700" y="1113" />
              <mxPoint x="700" y="1232" />
            </Array>
          </mxGeometry>
        </mxCell>
        <mxCell id="VrzktwjD4hYp2c8AveAD-5" value="จัดการแขนงวิชา" style="ellipse;whiteSpace=wrap;html=1;sketch=1;curveFitting=1;jiggle=2;fillColor=#f8cecc;strokeColor=#b85450;fontSize=16;" parent="1" vertex="1">
          <mxGeometry x="550" y="1045" width="120" height="80" as="geometry" />
        </mxCell>
        <mxCell id="VrzktwjD4hYp2c8AveAD-81" style="edgeStyle=orthogonalEdgeStyle;rounded=0;orthogonalLoop=1;jettySize=auto;html=1;exitX=0.5;exitY=1;exitDx=0;exitDy=0;entryX=0;entryY=0.5;entryDx=0;entryDy=0;sketch=1;curveFitting=1;jiggle=2;curved=1;fontSize=16;" parent="1" source="VrzktwjD4hYp2c8AveAD-6" target="VrzktwjD4hYp2c8AveAD-27" edge="1">
          <mxGeometry relative="1" as="geometry" />
        </mxCell>
        <mxCell id="rdVV01v3HmNomVi3YBPN-1" value="&amp;lt;&amp;lt;include&amp;gt;&amp;gt;" style="edgeLabel;html=1;align=center;verticalAlign=middle;resizable=0;points=[];fontSize=16;" parent="VrzktwjD4hYp2c8AveAD-81" vertex="1" connectable="0">
          <mxGeometry x="0.1695" y="22" relative="1" as="geometry">
            <mxPoint as="offset" />
          </mxGeometry>
        </mxCell>
        <mxCell id="VrzktwjD4hYp2c8AveAD-83" style="edgeStyle=orthogonalEdgeStyle;rounded=0;orthogonalLoop=1;jettySize=auto;html=1;exitX=1;exitY=0.5;exitDx=0;exitDy=0;entryX=0;entryY=0.5;entryDx=0;entryDy=0;sketch=1;curveFitting=1;jiggle=2;curved=1;fontSize=16;" parent="1" source="VrzktwjD4hYp2c8AveAD-6" target="VrzktwjD4hYp2c8AveAD-31" edge="1">
          <mxGeometry relative="1" as="geometry" />
        </mxCell>
        <mxCell id="VrzktwjD4hYp2c8AveAD-86" value="&amp;lt;&amp;lt;include&amp;gt;&amp;gt;" style="edgeLabel;html=1;align=center;verticalAlign=middle;resizable=0;points=[];fontSize=16;" parent="VrzktwjD4hYp2c8AveAD-83" vertex="1" connectable="0">
          <mxGeometry x="-0.0437" relative="1" as="geometry">
            <mxPoint as="offset" />
          </mxGeometry>
        </mxCell>
        <mxCell id="VrzktwjD4hYp2c8AveAD-84" style="edgeStyle=orthogonalEdgeStyle;rounded=0;orthogonalLoop=1;jettySize=auto;html=1;exitX=1;exitY=0;exitDx=0;exitDy=0;entryX=0;entryY=0.5;entryDx=0;entryDy=0;sketch=1;curveFitting=1;jiggle=2;curved=1;fontSize=16;" parent="1" source="VrzktwjD4hYp2c8AveAD-6" target="VrzktwjD4hYp2c8AveAD-30" edge="1">
          <mxGeometry relative="1" as="geometry" />
        </mxCell>
        <mxCell id="VrzktwjD4hYp2c8AveAD-85" value="&amp;lt;&amp;lt;include&amp;gt;&amp;gt;" style="edgeLabel;html=1;align=center;verticalAlign=middle;resizable=0;points=[];fontSize=16;" parent="VrzktwjD4hYp2c8AveAD-84" vertex="1" connectable="0">
          <mxGeometry x="0.0497" y="4" relative="1" as="geometry">
            <mxPoint as="offset" />
          </mxGeometry>
        </mxCell>
        <mxCell id="VrzktwjD4hYp2c8AveAD-6" value="จัดการข่าวสารคณะ" style="ellipse;whiteSpace=wrap;html=1;sketch=1;curveFitting=1;jiggle=2;fillColor=#ffe6cc;strokeColor=#d79b00;fontSize=16;" parent="1" vertex="1">
          <mxGeometry x="430" y="1600" width="120" height="80" as="geometry" />
        </mxCell>
        <mxCell id="VrzktwjD4hYp2c8AveAD-14" style="edgeStyle=orthogonalEdgeStyle;rounded=0;orthogonalLoop=1;jettySize=auto;html=1;exitX=0.5;exitY=0.5;exitDx=0;exitDy=0;exitPerimeter=0;entryX=1;entryY=0.5;entryDx=0;entryDy=0;sketch=1;curveFitting=1;jiggle=2;endArrow=none;startFill=0;curved=1;fontSize=16;" parent="1" source="VrzktwjD4hYp2c8AveAD-7" target="VrzktwjD4hYp2c8AveAD-10" edge="1">
          <mxGeometry relative="1" as="geometry">
            <Array as="points">
              <mxPoint x="1450" y="1040" />
              <mxPoint x="1450" y="1130" />
            </Array>
          </mxGeometry>
        </mxCell>
        <mxCell id="VrzktwjD4hYp2c8AveAD-15" style="edgeStyle=orthogonalEdgeStyle;rounded=0;orthogonalLoop=1;jettySize=auto;html=1;exitX=0.5;exitY=0.5;exitDx=0;exitDy=0;exitPerimeter=0;entryX=1;entryY=0.5;entryDx=0;entryDy=0;sketch=1;curveFitting=1;jiggle=2;endArrow=none;startFill=0;curved=1;fontSize=16;" parent="1" source="VrzktwjD4hYp2c8AveAD-7" target="VrzktwjD4hYp2c8AveAD-8" edge="1">
          <mxGeometry relative="1" as="geometry">
            <Array as="points">
              <mxPoint x="1440" y="1040" />
              <mxPoint x="1440" y="970" />
            </Array>
          </mxGeometry>
        </mxCell>
        <mxCell id="VrzktwjD4hYp2c8AveAD-16" style="edgeStyle=orthogonalEdgeStyle;rounded=0;orthogonalLoop=1;jettySize=auto;html=1;exitX=0.5;exitY=0.5;exitDx=0;exitDy=0;exitPerimeter=0;entryX=1;entryY=0.5;entryDx=0;entryDy=0;sketch=1;curveFitting=1;jiggle=2;endArrow=none;startFill=0;curved=1;fontSize=16;" parent="1" source="VrzktwjD4hYp2c8AveAD-7" target="VrzktwjD4hYp2c8AveAD-9" edge="1">
          <mxGeometry relative="1" as="geometry" />
        </mxCell>
        <mxCell id="VrzktwjD4hYp2c8AveAD-7" value="ผู้เยี่ยมชม" style="shape=umlActor;verticalLabelPosition=bottom;verticalAlign=top;html=1;outlineConnect=0;sketch=1;curveFitting=1;jiggle=2;fontSize=20;" parent="1" vertex="1">
          <mxGeometry x="1580" y="1010" width="30" height="60" as="geometry" />
        </mxCell>
        <mxCell id="VrzktwjD4hYp2c8AveAD-8" value="เข้าชมหลักสูตร" style="ellipse;whiteSpace=wrap;html=1;sketch=1;curveFitting=1;jiggle=2;fillColor=#eeeeee;strokeColor=#36393d;fontSize=16;" parent="1" vertex="1">
          <mxGeometry x="1240" y="930" width="120" height="80" as="geometry" />
        </mxCell>
        <mxCell id="rdVV01v3HmNomVi3YBPN-20" style="edgeStyle=orthogonalEdgeStyle;rounded=0;orthogonalLoop=1;jettySize=auto;html=1;exitX=0;exitY=0.5;exitDx=0;exitDy=0;entryX=1;entryY=0.5;entryDx=0;entryDy=0;sketch=1;curveFitting=1;jiggle=2;curved=1;fontSize=16;" parent="1" source="VrzktwjD4hYp2c8AveAD-9" target="rdVV01v3HmNomVi3YBPN-11" edge="1">
          <mxGeometry relative="1" as="geometry" />
        </mxCell>
        <mxCell id="rdVV01v3HmNomVi3YBPN-21" value="&amp;lt;&amp;lt;include&amp;gt;&amp;gt;" style="edgeLabel;html=1;align=center;verticalAlign=middle;resizable=0;points=[];fontSize=16;" parent="rdVV01v3HmNomVi3YBPN-20" vertex="1" connectable="0">
          <mxGeometry x="-0.0582" y="-3" relative="1" as="geometry">
            <mxPoint as="offset" />
          </mxGeometry>
        </mxCell>
        <mxCell id="VrzktwjD4hYp2c8AveAD-9" value="เข้าชมบุคลากร" style="ellipse;whiteSpace=wrap;html=1;sketch=1;curveFitting=1;jiggle=2;fillColor=#eeeeee;strokeColor=#36393d;fontSize=16;" parent="1" vertex="1">
          <mxGeometry x="1240" y="770" width="120" height="80" as="geometry" />
        </mxCell>
        <mxCell id="VrzktwjD4hYp2c8AveAD-10" value="เข้าชมข่าวสาร" style="ellipse;whiteSpace=wrap;html=1;sketch=1;curveFitting=1;jiggle=2;fillColor=#eeeeee;strokeColor=#36393d;fontSize=16;" parent="1" vertex="1">
          <mxGeometry x="1240" y="1090" width="120" height="80" as="geometry" />
        </mxCell>
        <mxCell id="VrzktwjD4hYp2c8AveAD-22" value="เข้าสู่ระบบ" style="ellipse;whiteSpace=wrap;html=1;sketch=1;curveFitting=1;jiggle=2;fillColor=#d5e8d4;strokeColor=#82b366;fontSize=16;" parent="1" vertex="1">
          <mxGeometry x="340" y="1850" width="120" height="80" as="geometry" />
        </mxCell>
        <mxCell id="VrzktwjD4hYp2c8AveAD-74" style="edgeStyle=orthogonalEdgeStyle;rounded=0;orthogonalLoop=1;jettySize=auto;html=1;exitX=1;exitY=0.5;exitDx=0;exitDy=0;entryX=0.5;entryY=1;entryDx=0;entryDy=0;curved=1;sketch=1;curveFitting=1;jiggle=2;startArrow=classic;startFill=0;endArrow=none;fontSize=16;" parent="1" source="VrzktwjD4hYp2c8AveAD-27" target="VrzktwjD4hYp2c8AveAD-10" edge="1">
          <mxGeometry relative="1" as="geometry" />
        </mxCell>
        <mxCell id="VrzktwjD4hYp2c8AveAD-79" value="&amp;lt;&amp;lt;include&amp;gt;&amp;gt;" style="edgeLabel;html=1;align=center;verticalAlign=middle;resizable=0;points=[];fontSize=16;" parent="VrzktwjD4hYp2c8AveAD-74" vertex="1" connectable="0">
          <mxGeometry x="0.1611" y="98" relative="1" as="geometry">
            <mxPoint x="-12" y="-24" as="offset" />
          </mxGeometry>
        </mxCell>
        <mxCell id="VrzktwjD4hYp2c8AveAD-90" style="edgeStyle=orthogonalEdgeStyle;rounded=0;orthogonalLoop=1;jettySize=auto;html=1;exitX=0.5;exitY=1;exitDx=0;exitDy=0;entryX=0.5;entryY=0;entryDx=0;entryDy=0;sketch=1;curveFitting=1;jiggle=2;fontSize=16;" parent="1" source="VrzktwjD4hYp2c8AveAD-27" target="VrzktwjD4hYp2c8AveAD-89" edge="1">
          <mxGeometry relative="1" as="geometry" />
        </mxCell>
        <mxCell id="VrzktwjD4hYp2c8AveAD-91" value="&amp;lt;&amp;lt;include&amp;gt;&amp;gt;" style="edgeLabel;html=1;align=center;verticalAlign=middle;resizable=0;points=[];fontSize=16;" parent="VrzktwjD4hYp2c8AveAD-90" vertex="1" connectable="0">
          <mxGeometry x="-0.0889" relative="1" as="geometry">
            <mxPoint as="offset" />
          </mxGeometry>
        </mxCell>
        <mxCell id="VrzktwjD4hYp2c8AveAD-27" value="แสดงข้อมูลข่าวสาร" style="ellipse;whiteSpace=wrap;html=1;sketch=1;curveFitting=1;jiggle=2;fillColor=#ffe6cc;strokeColor=#d79b00;fontSize=16;" parent="1" vertex="1">
          <mxGeometry x="670" y="1750" width="120" height="80" as="geometry" />
        </mxCell>
        <mxCell id="VrzktwjD4hYp2c8AveAD-30" value="เพิ่มข่าวสาร" style="ellipse;whiteSpace=wrap;html=1;sketch=1;curveFitting=1;jiggle=2;fillColor=#ffe6cc;strokeColor=#d79b00;fontSize=16;" parent="1" vertex="1">
          <mxGeometry x="660" y="1540" width="120" height="80" as="geometry" />
        </mxCell>
        <mxCell id="VrzktwjD4hYp2c8AveAD-31" value="แก้ไขข้อมูลข่าวสาร" style="ellipse;whiteSpace=wrap;html=1;sketch=1;curveFitting=1;jiggle=2;fillColor=#ffe6cc;strokeColor=#d79b00;fontSize=16;" parent="1" vertex="1">
          <mxGeometry x="660" y="1650" width="120" height="80" as="geometry" />
        </mxCell>
        <mxCell id="VrzktwjD4hYp2c8AveAD-34" value="เพิ่มสาขาวิชา" style="ellipse;whiteSpace=wrap;html=1;sketch=1;curveFitting=1;jiggle=2;fillColor=#dae8fc;strokeColor=#6c8ebf;fontSize=16;" parent="1" vertex="1">
          <mxGeometry x="355" y="780" width="120" height="80" as="geometry" />
        </mxCell>
        <mxCell id="VrzktwjD4hYp2c8AveAD-35" value="แก้ไขสาขาวิชา" style="ellipse;whiteSpace=wrap;html=1;sketch=1;curveFitting=1;jiggle=2;fillColor=#dae8fc;strokeColor=#6c8ebf;fontSize=16;" parent="1" vertex="1">
          <mxGeometry x="640" y="680" width="120" height="80" as="geometry" />
        </mxCell>
        <mxCell id="VrzktwjD4hYp2c8AveAD-36" value="ลบสาขาวิชา" style="ellipse;whiteSpace=wrap;html=1;sketch=1;curveFitting=1;jiggle=2;fillColor=#dae8fc;strokeColor=#6c8ebf;fontSize=16;" parent="1" vertex="1">
          <mxGeometry x="740" y="760" width="120" height="80" as="geometry" />
        </mxCell>
        <mxCell id="VrzktwjD4hYp2c8AveAD-37" value="จัดการสถานะสาขาวิชา" style="ellipse;whiteSpace=wrap;html=1;sketch=1;curveFitting=1;jiggle=2;fillColor=#dae8fc;strokeColor=#6c8ebf;fontSize=16;" parent="1" vertex="1">
          <mxGeometry x="490" y="710" width="120" height="80" as="geometry" />
        </mxCell>
        <mxCell id="VrzktwjD4hYp2c8AveAD-99" style="edgeStyle=orthogonalEdgeStyle;rounded=0;orthogonalLoop=1;jettySize=auto;html=1;exitX=0.5;exitY=1;exitDx=0;exitDy=0;entryX=0.5;entryY=0;entryDx=0;entryDy=0;sketch=1;curveFitting=1;jiggle=2;fontSize=16;" parent="1" source="VrzktwjD4hYp2c8AveAD-45" target="VrzktwjD4hYp2c8AveAD-98" edge="1">
          <mxGeometry relative="1" as="geometry" />
        </mxCell>
        <mxCell id="VrzktwjD4hYp2c8AveAD-100" value="&amp;lt;&amp;lt;include&amp;gt;&amp;gt;" style="edgeLabel;html=1;align=center;verticalAlign=middle;resizable=0;points=[];fontSize=16;" parent="VrzktwjD4hYp2c8AveAD-99" vertex="1" connectable="0">
          <mxGeometry x="-0.1238" y="-1" relative="1" as="geometry">
            <mxPoint as="offset" />
          </mxGeometry>
        </mxCell>
        <mxCell id="VrzktwjD4hYp2c8AveAD-45" value="แสดงข้อมูล&lt;div&gt;สาขาวิชา&lt;/div&gt;" style="ellipse;whiteSpace=wrap;html=1;sketch=1;curveFitting=1;jiggle=2;fillColor=#dae8fc;strokeColor=#6c8ebf;fontSize=16;" parent="1" vertex="1">
          <mxGeometry x="790" y="860" width="120" height="80" as="geometry" />
        </mxCell>
        <mxCell id="VrzktwjD4hYp2c8AveAD-96" style="edgeStyle=orthogonalEdgeStyle;rounded=0;orthogonalLoop=1;jettySize=auto;html=1;exitX=0.5;exitY=1;exitDx=0;exitDy=0;entryX=0.5;entryY=0;entryDx=0;entryDy=0;curved=1;sketch=1;curveFitting=1;jiggle=2;fontSize=16;" parent="1" source="VrzktwjD4hYp2c8AveAD-51" target="VrzktwjD4hYp2c8AveAD-92" edge="1">
          <mxGeometry relative="1" as="geometry">
            <Array as="points">
              <mxPoint x="872" y="1170" />
              <mxPoint x="872" y="1210" />
              <mxPoint x="940" y="1210" />
            </Array>
          </mxGeometry>
        </mxCell>
        <mxCell id="VrzktwjD4hYp2c8AveAD-97" value="&amp;lt;&amp;lt;include&amp;gt;&amp;gt;" style="edgeLabel;html=1;align=center;verticalAlign=middle;resizable=0;points=[];fontSize=16;" parent="VrzktwjD4hYp2c8AveAD-96" vertex="1" connectable="0">
          <mxGeometry x="-0.056" relative="1" as="geometry">
            <mxPoint x="9" as="offset" />
          </mxGeometry>
        </mxCell>
        <mxCell id="VrzktwjD4hYp2c8AveAD-51" value="แสดงข้อมูลฃแขนงวิชา" style="ellipse;whiteSpace=wrap;html=1;sketch=1;curveFitting=1;jiggle=2;fillColor=#f8cecc;strokeColor=#b85450;fontSize=16;" parent="1" vertex="1">
          <mxGeometry x="780" y="1090" width="120" height="80" as="geometry" />
        </mxCell>
        <mxCell id="VrzktwjD4hYp2c8AveAD-52" value="เพิ่มแขนงวิชา" style="ellipse;whiteSpace=wrap;html=1;sketch=1;curveFitting=1;jiggle=2;fillColor=#f8cecc;strokeColor=#b85450;fontSize=16;" parent="1" vertex="1">
          <mxGeometry x="330" y="1200" width="120" height="80" as="geometry" />
        </mxCell>
        <mxCell id="VrzktwjD4hYp2c8AveAD-53" value="จัดการสถานะแขนงวิชา" style="ellipse;whiteSpace=wrap;html=1;sketch=1;curveFitting=1;jiggle=2;fillColor=#f8cecc;strokeColor=#b85450;fontSize=16;" parent="1" vertex="1">
          <mxGeometry x="440" y="1260" width="120" height="80" as="geometry" />
        </mxCell>
        <mxCell id="VrzktwjD4hYp2c8AveAD-54" value="แก้ไขแขนงวิชา" style="ellipse;whiteSpace=wrap;html=1;sketch=1;curveFitting=1;jiggle=2;fillColor=#f8cecc;strokeColor=#b85450;fontSize=16;" parent="1" vertex="1">
          <mxGeometry x="590" y="1270" width="120" height="80" as="geometry" />
        </mxCell>
        <mxCell id="VrzktwjD4hYp2c8AveAD-55" value="ลบแขนงวิชา" style="ellipse;whiteSpace=wrap;html=1;sketch=1;curveFitting=1;jiggle=2;fillColor=#f8cecc;strokeColor=#b85450;fontSize=16;" parent="1" vertex="1">
          <mxGeometry x="720" y="1220" width="120" height="80" as="geometry" />
        </mxCell>
        <mxCell id="VrzktwjD4hYp2c8AveAD-89" value="ค้นหาข่าวสาร" style="ellipse;whiteSpace=wrap;html=1;sketch=1;curveFitting=1;jiggle=2;fillColor=#fff2cc;strokeColor=#d6b656;fontSize=16;" parent="1" vertex="1">
          <mxGeometry x="670" y="1890" width="120" height="80" as="geometry" />
        </mxCell>
        <mxCell id="VrzktwjD4hYp2c8AveAD-92" value="ค้นหาสาขาวิชา" style="ellipse;whiteSpace=wrap;html=1;fillColor=#f8cecc;strokeColor=#b85450;sketch=1;curveFitting=1;jiggle=2;fontSize=16;" parent="1" vertex="1">
          <mxGeometry x="880" y="1250" width="120" height="80" as="geometry" />
        </mxCell>
        <mxCell id="VrzktwjD4hYp2c8AveAD-98" value="ค้นหาสาขาวิชา" style="ellipse;whiteSpace=wrap;html=1;sketch=1;curveFitting=1;jiggle=2;fillColor=#dae8fc;strokeColor=#6c8ebf;fontSize=16;" parent="1" vertex="1">
          <mxGeometry x="790" y="990" width="120" height="80" as="geometry" />
        </mxCell>
        <mxCell id="rdVV01v3HmNomVi3YBPN-2" style="edgeStyle=orthogonalEdgeStyle;rounded=0;orthogonalLoop=1;jettySize=auto;html=1;exitX=0;exitY=0;exitDx=0;exitDy=0;entryX=1;entryY=0.5;entryDx=0;entryDy=0;curved=1;sketch=1;curveFitting=1;jiggle=2;fontSize=16;" parent="1" source="VrzktwjD4hYp2c8AveAD-101" target="VrzktwjD4hYp2c8AveAD-45" edge="1">
          <mxGeometry relative="1" as="geometry" />
        </mxCell>
        <mxCell id="rdVV01v3HmNomVi3YBPN-5" value="&amp;lt;&amp;lt;include&amp;gt;&amp;gt;" style="edgeLabel;html=1;align=center;verticalAlign=middle;resizable=0;points=[];fontSize=16;" parent="rdVV01v3HmNomVi3YBPN-2" vertex="1" connectable="0">
          <mxGeometry x="-0.0099" y="-1" relative="1" as="geometry">
            <mxPoint as="offset" />
          </mxGeometry>
        </mxCell>
        <mxCell id="rdVV01v3HmNomVi3YBPN-3" style="edgeStyle=orthogonalEdgeStyle;rounded=0;orthogonalLoop=1;jettySize=auto;html=1;exitX=0;exitY=1;exitDx=0;exitDy=0;entryX=1;entryY=0.5;entryDx=0;entryDy=0;curved=1;sketch=1;curveFitting=1;jiggle=2;fontSize=16;" parent="1" source="VrzktwjD4hYp2c8AveAD-101" target="VrzktwjD4hYp2c8AveAD-51" edge="1">
          <mxGeometry relative="1" as="geometry" />
        </mxCell>
        <mxCell id="rdVV01v3HmNomVi3YBPN-4" value="&amp;lt;&amp;lt;include&amp;gt;&amp;gt;" style="edgeLabel;html=1;align=center;verticalAlign=middle;resizable=0;points=[];fontSize=16;" parent="rdVV01v3HmNomVi3YBPN-3" vertex="1" connectable="0">
          <mxGeometry x="0.0144" relative="1" as="geometry">
            <mxPoint as="offset" />
          </mxGeometry>
        </mxCell>
        <mxCell id="rdVV01v3HmNomVi3YBPN-6" style="edgeStyle=orthogonalEdgeStyle;rounded=0;orthogonalLoop=1;jettySize=auto;html=1;exitX=1;exitY=0.5;exitDx=0;exitDy=0;entryX=0;entryY=0.5;entryDx=0;entryDy=0;curved=1;sketch=1;curveFitting=1;jiggle=2;startArrow=classic;startFill=0;endArrow=none;fontSize=16;" parent="1" source="VrzktwjD4hYp2c8AveAD-101" target="VrzktwjD4hYp2c8AveAD-8" edge="1">
          <mxGeometry relative="1" as="geometry">
            <Array as="points">
              <mxPoint x="1170" y="1005" />
              <mxPoint x="1170" y="970" />
            </Array>
          </mxGeometry>
        </mxCell>
        <mxCell id="rdVV01v3HmNomVi3YBPN-7" value="&amp;lt;&amp;lt;include&amp;gt;&amp;gt;" style="edgeLabel;html=1;align=center;verticalAlign=middle;resizable=0;points=[];fontSize=16;" parent="rdVV01v3HmNomVi3YBPN-6" vertex="1" connectable="0">
          <mxGeometry x="-0.0465" relative="1" as="geometry">
            <mxPoint as="offset" />
          </mxGeometry>
        </mxCell>
        <mxCell id="VrzktwjD4hYp2c8AveAD-101" value="แสดงข้อมูลหลักสูตร" style="ellipse;whiteSpace=wrap;html=1;fillColor=#dae8fc;strokeColor=#6c8ebf;sketch=1;curveFitting=1;jiggle=2;fontSize=16;" parent="1" vertex="1">
          <mxGeometry x="990" y="965" width="120" height="80" as="geometry" />
        </mxCell>
        <mxCell id="rdVV01v3HmNomVi3YBPN-8" value="เพิ่มบุคลากร" style="ellipse;whiteSpace=wrap;html=1;sketch=1;curveFitting=1;jiggle=2;fillColor=#b0e3e6;strokeColor=#0e8088;fontSize=16;" parent="1" vertex="1">
          <mxGeometry x="360" y="370" width="120" height="80" as="geometry" />
        </mxCell>
        <mxCell id="rdVV01v3HmNomVi3YBPN-9" value="แก้ไขบุคลากร" style="ellipse;whiteSpace=wrap;html=1;sketch=1;curveFitting=1;jiggle=2;fillColor=#b0e3e6;strokeColor=#0e8088;fontSize=16;" parent="1" vertex="1">
          <mxGeometry x="520" y="350" width="120" height="80" as="geometry" />
        </mxCell>
        <mxCell id="rdVV01v3HmNomVi3YBPN-10" value="ลบบุคลากร" style="ellipse;whiteSpace=wrap;html=1;sketch=1;curveFitting=1;jiggle=2;fillColor=#b0e3e6;strokeColor=#0e8088;fontSize=16;" parent="1" vertex="1">
          <mxGeometry x="660" y="400" width="120" height="80" as="geometry" />
        </mxCell>
        <mxCell id="rdVV01v3HmNomVi3YBPN-11" value="แสดงข้อมูลบุคลากร" style="ellipse;whiteSpace=wrap;html=1;sketch=1;curveFitting=1;jiggle=2;fillColor=#b0e3e6;strokeColor=#0e8088;fontSize=16;" parent="1" vertex="1">
          <mxGeometry x="750" y="520" width="120" height="80" as="geometry" />
        </mxCell>
        <mxCell id="rdVV01v3HmNomVi3YBPN-22" value="จัดการสถานะบุคลากร" style="ellipse;whiteSpace=wrap;html=1;fillColor=#b0e3e6;strokeColor=#0e8088;sketch=1;curveFitting=1;jiggle=2;fontSize=16;" parent="1" vertex="1">
          <mxGeometry x="250" y="460" width="120" height="80" as="geometry" />
        </mxCell>
        <mxCell id="rdVV01v3HmNomVi3YBPN-26" value="" style="rounded=0;whiteSpace=wrap;html=1;fillColor=none;" parent="1" vertex="1">
          <mxGeometry x="180" y="150" width="1360" height="1890" as="geometry" />
        </mxCell>
        <mxCell id="rdVV01v3HmNomVi3YBPN-27" value="&lt;font style=&quot;font-size: 60px;&quot;&gt;ระบบจัดการเว็บไซต์คณะเทคโนโลยีสารสนเทศ&lt;/font&gt;" style="text;html=1;align=center;verticalAlign=middle;resizable=0;points=[];autosize=1;strokeColor=none;fillColor=none;" parent="1" vertex="1">
          <mxGeometry x="275" y="200" width="1150" height="90" as="geometry" />
        </mxCell>
      </root>
    </mxGraphModel>
  </diagram>
</mxfile>
